<?xml version="1.0" encoding="utf-8"?>
<!-- Generator: Adobe Illustrator 22.1.0, SVG Export Plug-In . SVG Version: 6.00 Build 0)  -->
<svg version="1.1" id="Layer_1" xmlns="http://www.w3.org/2000/svg" xmlns:xlink="http://www.w3.org/1999/xlink" x="0px" y="0px"
	 viewBox="0 0 800 600" style="enable-background:new 0 0 800 600;" xml:space="preserve">
<style type="text/css">
	.st0{fill:#FFFFFF;}
	.st1{fill:#E35183;}
	.st2{fill:#AD1457;}
</style>
<g>
	<g>
		<path class="st0" d="M396,251c0,5.9-1,11-3.1,15.5s-5.1,7.8-8.9,10.3s-8.3,3.6-13.3,3.6c-4.9,0-9.4-1.2-13.2-3.6s-6.9-5.8-9-10.2
			s-3.2-9.5-3.2-15.2v-3c0-5.9,1.1-11.1,3.2-15.5s5.1-7.9,9-10.3s8.3-3.6,13.3-3.6s9.4,1.2,13.3,3.6s6.9,5.8,9,10.3
			s3.2,9.6,3.2,15.5V251z M383.5,248.3c0-6.3-1.1-11-3.4-14.3s-5.4-4.9-9.6-4.9c-4.1,0-7.3,1.6-9.6,4.8s-3.4,7.9-3.4,14.1v2.9
			c0,6.1,1.1,10.8,3.4,14.2s5.5,5,9.7,5c4.1,0,7.3-1.6,9.5-4.9s3.3-8,3.4-14.2V248.3z"/>
		<path class="st0" d="M428.2,267.3c0-1.5-0.7-2.6-2.2-3.4s-3.7-1.6-6.9-2.2c-10.6-2.2-15.8-6.7-15.8-13.5c0-3.9,1.6-7.2,4.9-9.9
			s7.5-4,12.8-4c5.6,0,10.1,1.3,13.5,4s5.1,6.1,5.1,10.3h-11.9c0-1.7-0.5-3.1-1.6-4.2s-2.8-1.7-5.1-1.7c-2,0-3.5,0.5-4.6,1.4
			s-1.6,2.1-1.6,3.4c0,1.3,0.6,2.4,1.9,3.2s3.3,1.5,6.3,2.1s5.4,1.3,7.5,2c6.3,2.3,9.4,6.3,9.4,11.9c0,4-1.7,7.3-5.2,9.8
			s-8,3.8-13.5,3.8c-3.7,0-7-0.7-9.9-2s-5.1-3.1-6.8-5.5s-2.5-4.8-2.5-7.5h11.2c0.1,2.1,0.9,3.7,2.3,4.8s3.4,1.7,5.8,1.7
			c2.3,0,4-0.4,5.1-1.3S428.2,268.7,428.2,267.3z"/>
		<path class="st0" d="M465.8,270.8c2.2,0,4-0.6,5.3-1.8s2.1-2.8,2.1-4.8h11.1c0,3-0.8,5.8-2.5,8.3s-3.8,4.4-6.6,5.8
			s-5.9,2.1-9.3,2.1c-6.3,0-11.3-2-15-6s-5.5-9.6-5.5-16.7v-0.8c0-6.8,1.8-12.3,5.5-16.4s8.6-6.1,15-6.1c5.6,0,10,1.6,13.4,4.7
			s5.1,7.4,5.1,12.6h-11.1c-0.1-2.3-0.8-4.2-2.1-5.6s-3.2-2.2-5.4-2.2c-2.8,0-4.8,1-6.3,3s-2.1,5.3-2.1,9.8v1.2
			c0,4.6,0.7,7.9,2.1,9.9C460.9,269.8,463,270.8,465.8,270.8z"/>
		<path class="st0" d="M516.9,279.5c-0.5-1.1-0.9-2.4-1.2-4c-2.9,3.2-6.6,4.8-11.2,4.8c-4.3,0-8-1.3-10.8-3.8s-4.3-5.7-4.3-9.5
			c0-4.7,1.7-8.3,5.2-10.8s8.5-3.8,15.1-3.8h5.5v-2.5c0-2.1-0.5-3.7-1.6-4.9s-2.7-1.8-5-1.8c-2,0-3.6,0.5-4.7,1.4s-1.7,2.3-1.7,3.9
			h-11.9c0-2.6,0.8-4.9,2.4-7.1s3.8-3.9,6.7-5.1s6.2-1.9,9.8-1.9c5.5,0,9.8,1.4,13,4.1s4.8,6.6,4.8,11.6v19.2c0,4.2,0.6,7.4,1.8,9.6
			v0.7H516.9z M507.1,271.3c1.7,0,3.4-0.4,4.8-1.2s2.6-1.8,3.3-3.1v-7.6h-4.4c-5.9,0-9.1,2.1-9.5,6.2l0,0.7c0,1.5,0.5,2.7,1.6,3.7
			S505.3,271.3,507.1,271.3z"/>
		<path class="st0" d="M561.1,246.3c-1.6-0.2-3-0.3-4.3-0.3c-4.5,0-7.4,1.5-8.8,4.6v29h-11.9v-44.4h11.2l0.3,5.3
			c2.4-4.1,5.7-6.1,9.9-6.1c1.3,0,2.5,0.2,3.7,0.5L561.1,246.3z"/>
		<path class="st0" d="M359.3,353.6h26.1v9.9H347v-59.7h12.3V353.6z"/>
		<path class="st0" d="M417.4,363.5c-0.5-1.1-0.9-2.4-1.2-4c-2.9,3.2-6.6,4.8-11.2,4.8c-4.3,0-8-1.3-10.8-3.8s-4.3-5.7-4.3-9.5
			c0-4.7,1.7-8.3,5.2-10.8s8.5-3.8,15.1-3.8h5.5v-2.5c0-2.1-0.5-3.7-1.6-4.9s-2.7-1.8-5-1.8c-2,0-3.6,0.5-4.7,1.4s-1.7,2.3-1.7,3.9
			h-11.9c0-2.6,0.8-4.9,2.4-7.1s3.8-3.9,6.7-5.1s6.2-1.9,9.8-1.9c5.5,0,9.8,1.4,13,4.1s4.8,6.6,4.8,11.6v19.2c0,4.2,0.6,7.4,1.8,9.6
			v0.7H417.4z M407.6,355.3c1.7,0,3.4-0.4,4.8-1.2s2.6-1.8,3.3-3.1v-7.6h-4.4c-5.9,0-9.1,2.1-9.5,6.2l0,0.7c0,1.5,0.5,2.7,1.6,3.7
			S405.8,355.3,407.6,355.3z"/>
		<path class="st0" d="M435,341c0-6.8,1.6-12.3,4.9-16.4s7.6-6.2,13.1-6.2c4.9,0,8.7,1.7,11.4,5l0.5-4.2h10.7v42.9
			c0,3.9-0.9,7.3-2.6,10.1s-4.2,5.1-7.4,6.6s-6.9,2.3-11.2,2.3c-3.3,0-6.4-0.7-9.5-1.9s-5.4-3-7-5l5.2-7.2c3,3.3,6.5,5,10.7,5
			c3.1,0,5.6-0.8,7.3-2.5s2.6-4.1,2.6-7.2v-2.4c-2.7,3.1-6.3,4.6-10.8,4.6c-5.3,0-9.6-2.1-12.9-6.3s-4.9-9.7-4.9-16.6V341z
			 M446.8,341.9c0,4,0.8,7.2,2.4,9.5c1.6,2.3,3.8,3.4,6.6,3.4c3.6,0,6.2-1.4,7.8-4.1V332c-1.6-2.7-4.1-4.1-7.7-4.1
			c-2.8,0-5.1,1.2-6.7,3.5C447.6,333.8,446.8,337.3,446.8,341.9z"/>
		<path class="st0" d="M510.4,363.5c-0.5-1.1-0.9-2.4-1.2-4c-2.9,3.2-6.6,4.8-11.2,4.8c-4.3,0-8-1.3-10.8-3.8s-4.3-5.7-4.3-9.5
			c0-4.7,1.7-8.3,5.2-10.8s8.5-3.8,15.1-3.8h5.5v-2.5c0-2.1-0.5-3.7-1.6-4.9s-2.7-1.8-5-1.8c-2,0-3.6,0.5-4.7,1.4s-1.7,2.3-1.7,3.9
			h-11.9c0-2.6,0.8-4.9,2.4-7.1s3.8-3.9,6.7-5.1s6.2-1.9,9.8-1.9c5.5,0,9.8,1.4,13,4.1s4.8,6.6,4.8,11.6v19.2c0,4.2,0.6,7.4,1.8,9.6
			v0.7H510.4z M500.6,355.3c1.7,0,3.4-0.4,4.8-1.2s2.6-1.8,3.3-3.1v-7.6h-4.4c-5.9,0-9.1,2.1-9.5,6.2l0,0.7c0,1.5,0.5,2.7,1.6,3.7
			S498.8,355.3,500.6,355.3z"/>
		<path class="st0" d="M543.9,308.2v10.9h7.6v8.7h-7.6V350c0,1.6,0.3,2.8,0.9,3.5s1.8,1.1,3.6,1.1c1.3,0,2.5-0.1,3.5-0.3v9
			c-2.3,0.7-4.7,1.1-7.2,1.1c-8.3,0-12.6-4.2-12.7-12.6v-23.9h-6.5v-8.7h6.5v-10.9H543.9z"/>
		<path class="st0" d="M572.3,308.2v10.9h7.6v8.7h-7.6V350c0,1.6,0.3,2.8,0.9,3.5s1.8,1.1,3.6,1.1c1.3,0,2.5-0.1,3.5-0.3v9
			c-2.3,0.7-4.7,1.1-7.2,1.1c-8.3,0-12.6-4.2-12.7-12.6v-23.9h-6.5v-8.7h6.5v-10.9H572.3z"/>
		<path class="st0" d="M612.2,363.5c-0.5-1.1-0.9-2.4-1.2-4c-2.9,3.2-6.6,4.8-11.2,4.8c-4.3,0-8-1.3-10.8-3.8s-4.3-5.7-4.3-9.5
			c0-4.7,1.7-8.3,5.2-10.8s8.5-3.8,15.1-3.8h5.5v-2.5c0-2.1-0.5-3.7-1.6-4.9s-2.7-1.8-5-1.8c-2,0-3.6,0.5-4.7,1.4s-1.7,2.3-1.7,3.9
			h-11.9c0-2.6,0.8-4.9,2.4-7.1s3.8-3.9,6.7-5.1s6.2-1.9,9.8-1.9c5.5,0,9.8,1.4,13,4.1s4.8,6.6,4.8,11.6v19.2c0,4.2,0.6,7.4,1.8,9.6
			v0.7H612.2z M602.4,355.3c1.7,0,3.4-0.4,4.8-1.2s2.6-1.8,3.3-3.1v-7.6H606c-5.9,0-9.1,2.1-9.5,6.2l0,0.7c0,1.5,0.5,2.7,1.6,3.7
			S600.6,355.3,602.4,355.3z"/>
	</g>
	<g>
		<g>
			<path class="st1" d="M230.9,354l-46.5-25.2l-8.5-74.4l55-20.4l55,20.4l-8.6,74.4L230.9,354z"/>
		</g>
		<g>
			<path class="st2" d="M230.9,354l0-120l55,20.4l-8.6,74.4L230.9,354z"/>
		</g>
	</g>
</g>
</svg>
